<svg id="Icons" height="512" viewBox="0 0 74 74" width="512" xmlns="http://www.w3.org/2000/svg"><path d="m58.961 53.97q-.039 0-.078 0a1 1 0 0 1 -.92-1.074l.23-2.97a1 1 0 0 1 2 .154l-.231 2.97a1 1 0 0 1 -1.001.92z"/><path d="m55.68 72h-37.36a2.993 2.993 0 0 1 -3-2.754l-3.957-50.177a1 1 0 0 1 1-1.079h49.277a1 1 0 0 1 1 1.079l-1.11 14.1a1 1 0 1 1 -1.994-.157l1.022-13.022h-47.116l3.875 49.092a1 1 0 0 0 1 .918h37.363a1 1 0 0 0 1-.926l.729-9.183a1.011 1.011 0 0 1 1.076-.918 1 1 0 0 1 .918 1.076l-.73 9.19a3 3 0 0 1 -2.993 2.761z"/><path d="m59.741 44h-.08a1 1 0 0 1 -.918-1.076l.23-2.91a1 1 0 0 1 1.994.157l-.23 2.911a1 1 0 0 1 -.996.918z"/><path d="m65.187 19.99h-56.374a1.986 1.986 0 0 1 -1.983-1.984v-6.673a1.986 1.986 0 0 1 1.983-1.983h56.374a1.986 1.986 0 0 1 1.983 1.983v6.673a1.986 1.986 0 0 1 -1.983 1.984zm-56.357-8.64v6.656l56.357-.016-.017-6.657z"/><path d="m46.3 11.35h-18.6a1 1 0 0 1 -1-1v-5.05a3.306 3.306 0 0 1 3.3-3.3h13.993a3.306 3.306 0 0 1 3.3 3.3v5.05a1 1 0 0 1 -.993 1zm-17.6-2h16.6v-4.05a1.3 1.3 0 0 0 -1.3-1.3h-13.993a1.3 1.3 0 0 0 -1.3 1.3z"/><path d="m37 59a1 1 0 0 1 -1-1v-28a1 1 0 0 1 2 0v28a1 1 0 0 1 -1 1z"/><path d="m47.771 59a1.127 1.127 0 0 1 -.116-.006 1 1 0 0 1 -.879-1.109l3.231-28a1 1 0 1 1 1.986.23l-3.23 28a1 1 0 0 1 -.992.885z"/><path d="m26.229 59a1 1 0 0 1 -.992-.885l-3.23-28a1 1 0 1 1 1.986-.23l3.231 28a1 1 0 0 1 -.879 1.109 1.112 1.112 0 0 1 -.116.006z"/></svg>